<svg width="175" height="83" viewBox="0 0 175 83" fill="none" xmlns="http://www.w3.org/2000/svg">
<g clip-path="url(#clip0_36_50)">
<path d="M71.7284 15.846H74.9876V51.9989H69.298V25.7608L63.5044 31.03V23.3341L71.7284 15.846Z" fill="black"/>
<mask id="mask0_36_50" style="mask-type:luminance" maskUnits="userSpaceOnUse" x="0" y="0" width="175" height="83">
<path d="M175 0H0V83H175V0Z" fill="white"/>
</mask>
<g mask="url(#mask0_36_50)">
<path d="M87.2457 52.4107C84.7632 52.4107 82.7626 51.7064 81.2458 50.2938C79.5208 48.6407 78.6593 46.3872 78.6593 43.5274V24.3156C78.6593 21.4577 79.5208 19.2023 81.2458 17.5492C82.7626 16.1385 84.7632 15.4323 87.2457 15.4323C89.7281 15.4323 91.7287 16.1385 93.2455 17.5492C94.9686 19.2023 95.832 21.4577 95.832 24.3156V43.5274C95.832 46.3853 94.9686 48.6407 93.2455 50.2938C91.7268 51.7064 89.7281 52.4107 87.2457 52.4107ZM87.2457 21.1133C86.2801 21.1133 85.5727 21.3192 85.1256 21.7329C84.6091 22.216 84.3489 23.0762 84.3489 24.3156V43.5274C84.3489 44.7668 84.6071 45.627 85.1256 46.1101C85.5727 46.5238 86.2801 46.7297 87.2457 46.7297C88.2113 46.7297 88.9533 46.5238 89.3658 46.1101C89.8823 45.6636 90.1425 44.8014 90.1425 43.5274V24.3156C90.1425 23.0416 89.8842 22.1813 89.3658 21.7329C88.9514 21.3192 88.244 21.1133 87.2457 21.1133Z" fill="black"/>
<path d="M107.73 52.4107C105.247 52.4107 103.247 51.7064 101.73 50.2938C100.005 48.6407 99.1432 46.3872 99.1432 43.5274V24.3156C99.1432 21.4577 100.005 19.2023 101.73 17.5492C103.247 16.1385 105.247 15.4323 107.73 15.4323C110.212 15.4323 112.213 16.1385 113.729 17.5492C115.452 19.2023 116.316 21.4577 116.316 24.3156V43.5274C116.316 46.3853 115.452 48.6407 113.729 50.2938C112.211 51.7064 110.212 52.4107 107.73 52.4107ZM107.73 21.1133C106.764 21.1133 106.057 21.3192 105.609 21.7329C105.093 22.216 104.833 23.0762 104.833 24.3156V43.5274C104.833 44.7668 105.091 45.627 105.609 46.1101C106.057 46.5238 106.764 46.7297 107.73 46.7297C108.695 46.7297 109.437 46.5238 109.85 46.1101C110.366 45.6636 110.626 44.8014 110.626 43.5274V24.3156C110.626 23.0416 110.368 22.1813 109.85 21.7329C109.435 21.3192 108.728 21.1133 107.73 21.1133Z" fill="black"/>
<path d="M120.379 48.302C120.458 48.6215 120.82 48.6292 121.46 48.3213C122.102 48.0153 122.882 47.5419 123.804 46.901C124.725 46.2602 125.687 45.5212 126.689 44.6802C127.691 43.8411 128.591 43.0194 129.393 42.2207C129.74 41.8474 130.081 41.5876 130.415 41.4413C130.748 41.2951 131.016 41.2277 131.216 41.2412C131.417 41.2547 131.517 41.349 131.517 41.5222C131.517 41.6954 131.371 41.9282 131.076 42.2227C130.889 42.4093 130.548 42.7634 130.054 43.283C129.559 43.8026 128.979 44.4031 128.312 45.0824C127.645 45.7617 126.936 46.4699 126.188 47.2032C125.44 47.9364 124.711 48.6176 124.004 49.2431C123.297 49.8705 122.642 50.3958 122.042 50.8231C121.441 51.2503 120.967 51.4909 120.62 51.5428C120.327 51.5967 120.032 51.462 119.739 51.1425C119.446 50.8231 119.205 50.3824 119.018 49.8224C118.831 49.2623 118.717 48.6099 118.677 47.8633C118.636 47.1166 118.737 46.3179 118.978 45.4634C119.138 44.8765 119.498 44.024 120.059 42.9039C120.62 41.7839 121.287 40.5638 122.061 39.2436C122.836 37.9234 123.677 36.5705 124.584 35.183C125.492 33.7974 126.381 32.5369 127.248 31.4033C128.115 30.2698 128.917 29.3442 129.651 28.6225C130.386 27.9028 130.966 27.5294 131.394 27.5025C131.874 27.5025 132.307 27.6699 132.695 28.0028C133.082 28.3358 133.388 28.7495 133.616 29.2422C133.843 29.7368 133.99 30.2487 134.057 30.7817C134.123 31.3148 134.103 31.769 133.997 32.1423C133.838 32.6485 133.477 33.222 132.916 33.8628C132.355 34.5037 131.694 35.1695 130.933 35.8623C130.172 36.5571 129.364 37.2499 128.51 37.9427C127.655 38.6374 126.847 39.2686 126.088 39.8421C125.326 40.4156 124.665 40.916 124.104 41.3413C123.544 41.7685 123.183 42.061 123.023 42.2207L122.703 42.4998C121.928 43.8334 121.321 45.0189 120.88 46.06C120.439 47.0992 120.273 47.8479 120.379 48.3001M132.517 30.2198C132.357 30.0601 132.003 30.2198 131.455 30.699C130.908 31.1782 130.26 31.8652 129.513 32.7582C128.765 33.6511 127.957 34.6846 127.088 35.8585C126.221 37.0324 125.386 38.2313 124.584 39.4591C125.546 38.5527 126.546 37.5982 127.589 36.5994C128.63 35.5987 129.551 34.6595 130.353 33.7801C131.155 32.9006 131.775 32.1404 132.217 31.4996C132.658 30.8607 132.758 30.4334 132.517 30.2198Z" fill="#F15A27"/>
<path d="M129.391 48.9813C129.632 49.2488 130.052 49.322 130.654 49.2007C131.255 49.0814 131.941 48.8466 132.716 48.5002C133.491 48.1538 134.325 47.7151 135.219 47.1801C136.114 46.647 136.981 46.087 137.823 45.5C138.664 44.913 139.446 44.3338 140.167 43.7603C140.888 43.1868 141.476 42.6749 141.931 42.2207C142.304 41.8474 142.657 41.5741 142.992 41.4009C143.326 41.2277 143.594 41.1469 143.794 41.1603C143.995 41.1738 144.095 41.2739 144.095 41.4606C144.095 41.6472 143.935 41.9013 143.615 42.2207C142.574 43.2599 141.458 44.328 140.271 45.4211C139.082 46.5142 137.908 47.5149 136.746 48.4213C135.584 49.3278 134.476 50.0687 133.421 50.6422C132.365 51.2156 131.451 51.5024 130.677 51.5024C130.303 51.5024 129.888 51.4158 129.435 51.2426C128.983 51.0694 128.568 50.8019 128.194 50.442C127.82 50.0821 127.506 49.6164 127.254 49.0429C126.999 48.4694 126.874 47.7824 126.874 46.9838C126.874 46.4507 127.094 45.7829 127.535 44.9842C127.976 44.1837 128.543 43.3446 129.237 42.4651C129.931 41.5857 130.706 40.7062 131.559 39.8248C132.413 38.9453 133.261 38.1524 134.104 37.4442C134.944 36.7379 135.74 36.1645 136.488 35.7238C137.235 35.283 137.835 35.0637 138.29 35.0637C138.45 35.0637 138.683 35.1175 138.991 35.2234C139.298 35.3312 139.598 35.5044 139.893 35.743C140.186 35.9836 140.435 36.303 140.635 36.7033C140.836 37.1036 140.896 37.6097 140.817 38.2236C140.736 38.8375 140.47 39.4899 140.015 40.1846C139.56 40.8775 139.02 41.5452 138.392 42.1842C137.764 42.8231 137.124 43.4043 136.468 43.9239C135.813 44.4435 135.26 44.8245 134.805 45.0632C134.03 45.5173 133.29 45.6559 132.583 45.4827C131.876 45.3095 131.307 44.9958 130.881 44.5435C130.187 45.5308 129.678 46.4295 129.358 47.2436C129.038 48.0576 129.052 48.6369 129.399 48.9833M138.172 38.0235C137.958 37.8907 137.604 37.958 137.11 38.2236C136.615 38.4911 136.062 38.8914 135.449 39.4245C134.834 39.9576 134.186 40.5849 133.506 41.3047C132.826 42.0244 132.19 42.7711 131.604 43.5448C132.005 43.7314 132.465 43.7391 132.986 43.564C133.506 43.3908 134.034 43.1175 134.568 42.7442C135.102 42.3708 135.617 41.9378 136.11 41.4432C136.603 40.9506 137.031 40.4637 137.392 39.9826C137.752 39.5034 138.006 39.0819 138.153 38.7221C138.299 38.3622 138.307 38.1293 138.172 38.0216" fill="#F15A27"/>
<path d="M142.771 32.7428C142.611 32.6889 142.516 32.5965 142.491 32.4637C142.464 32.3309 142.497 32.1905 142.592 32.0442C142.684 31.8979 142.832 31.7844 143.033 31.7036C143.233 31.6227 143.467 31.6227 143.735 31.7036C144.214 31.8383 144.87 31.9364 145.697 32.0038C146.523 32.0711 147.445 32.1173 148.46 32.1443C149.287 31.132 150.089 30.2391 150.864 29.4654C151.639 28.6918 152.319 28.1318 152.907 27.7854C153.2 27.6256 153.541 27.6064 153.928 27.7257C154.316 27.845 154.663 28.0798 154.969 28.4262C155.275 28.7726 155.495 29.2268 155.63 29.7868C155.763 30.3468 155.723 30.9877 155.511 31.7074C156.713 31.5477 157.881 31.3418 159.016 31.0877C160.152 30.8337 161.187 30.5219 162.121 30.1486C162.628 29.9619 162.943 29.9485 163.062 30.1082C163.182 30.2679 163.143 30.5219 162.943 30.8683C162.742 31.2148 162.414 31.5823 161.962 31.9691C161.507 32.356 160.973 32.6696 160.36 32.9083C159.504 33.2277 158.477 33.4625 157.276 33.6088C156.075 33.755 154.792 33.8436 153.431 33.8686L153.35 33.909C153.296 33.9359 153.022 34.1553 152.529 34.5691C152.034 34.9828 151.421 35.5024 150.686 36.1298C149.952 36.7572 149.158 37.45 148.302 38.2102C147.447 38.9703 146.62 39.7093 145.818 40.431C145.23 41.3913 144.702 42.3247 144.236 43.2311C143.767 44.1375 143.407 44.9708 143.154 45.7309C142.9 46.4911 142.759 47.1512 142.734 47.7112C142.707 48.2712 142.84 48.685 143.135 48.9506C143.322 49.1372 143.756 49.0506 144.436 48.6908C145.116 48.3309 145.918 47.8171 146.839 47.1512C147.761 46.4853 148.736 45.7117 149.763 44.8303C150.791 43.9508 151.733 43.0848 152.587 42.2304C153.015 41.8051 153.414 41.4894 153.79 41.2912C154.163 41.0911 154.443 41.0045 154.63 41.0314C154.817 41.0584 154.89 41.1777 154.85 41.3913C154.809 41.6049 154.616 41.8859 154.269 42.2304C154.028 42.4709 153.655 42.8712 153.148 43.4312C152.641 43.9912 152.066 44.6186 151.425 45.3114C150.783 46.0061 150.089 46.7259 149.341 47.4707C148.593 48.2173 147.873 48.8967 147.179 49.5106C146.485 50.1245 145.83 50.6306 145.217 51.0309C144.602 51.4312 144.095 51.6313 143.694 51.6313C143.293 51.6313 142.879 51.4504 142.453 51.0906C142.025 50.7307 141.665 50.2303 141.372 49.5914C141.079 48.9506 140.884 48.1981 140.791 47.3321C140.699 46.4661 140.786 45.525 141.052 44.5128C141.212 43.8469 141.499 43.079 141.913 42.213C142.328 41.347 142.815 40.4271 143.376 39.4534C143.937 38.4796 144.557 37.4866 145.24 36.4724C145.92 35.4601 146.622 34.4863 147.343 33.553C146.487 33.4471 145.679 33.3336 144.918 33.2123C144.157 33.093 143.442 32.9391 142.775 32.7524M150.386 33.832C149.505 34.9251 148.649 36.099 147.822 37.3519L151.307 33.8724C151.172 33.8455 151.026 33.832 150.866 33.832H150.386ZM153.15 31.9518C153.737 31.3129 154.117 30.8395 154.291 30.5316C154.464 30.2256 154.51 30.0062 154.431 29.8715C154.325 29.7118 154.044 29.8388 153.591 30.2525C153.136 30.6663 152.564 31.259 151.868 32.0326C152.082 32.0326 152.294 32.0269 152.51 32.0134C152.724 31.9999 152.936 31.9807 153.152 31.9537" fill="#F15A27"/>
<path d="M70.7571 68.3433H69.408V57.2565H71.9135C72.6209 57.2565 73.2087 57.4625 73.6732 57.8743C74.1705 58.3381 74.4191 59.0039 74.4191 59.8699V61.1208C74.4191 61.9753 74.1705 62.6354 73.6732 63.1011C73.2299 63.513 72.6421 63.7189 71.9135 63.7189H70.7552V68.3433H70.7571ZM70.7571 62.3717H71.9155C72.3163 62.3717 72.6112 62.2717 72.7963 62.0715C72.9813 61.8714 73.0738 61.5539 73.0738 61.1208V59.8699C73.0738 59.4369 72.9813 59.1175 72.7963 58.9116C72.6112 58.7056 72.3183 58.6037 71.9155 58.6037H70.7571V62.3737V62.3717Z" fill="black"/>
<path d="M77.8787 68.4857C77.1695 68.4857 76.5836 68.2798 76.1171 67.868C75.6102 67.4042 75.3558 66.7383 75.3558 65.8723V59.7275C75.3558 58.8731 75.6102 58.2072 76.1171 57.7319C76.5816 57.32 77.1695 57.1141 77.8787 57.1141C78.588 57.1141 79.1739 57.32 79.6384 57.7319C80.1357 58.2072 80.3843 58.8731 80.3843 59.7275V60.7417H79.0371V59.7275C79.0371 59.2945 78.9446 58.9751 78.7595 58.7691C78.5745 58.5632 78.2816 58.4593 77.8787 58.4593C77.4759 58.4593 77.181 58.5632 76.9902 58.7691C76.7994 58.9751 76.705 59.2945 76.705 59.7275V65.8723C76.705 66.3053 76.7994 66.6248 76.9902 66.8307C77.181 67.0366 77.4759 67.1405 77.8787 67.1405C78.2816 67.1405 78.5745 67.0366 78.7595 66.8307C78.9446 66.6248 79.0371 66.3053 79.0371 65.8723V63.4802H77.8787V62.1331H80.3843V65.8704C80.3843 66.7364 80.1357 67.4023 79.6384 67.8661C79.172 68.2779 78.5861 68.4838 77.8787 68.4838" fill="black"/>
<path d="M84.0809 68.3433H81.558V57.2565H84.0809C84.7998 57.2565 85.3819 57.4625 85.8251 57.8743C86.332 58.3496 86.5865 59.0155 86.5865 59.8699V65.7934C86.5865 66.6479 86.332 67.308 85.8251 67.7737C85.3819 68.1528 84.7998 68.3433 84.0809 68.3433ZM82.9071 66.9962H84.0809C84.4721 66.9962 84.7516 66.9173 84.9212 66.7595C85.1332 66.569 85.2392 66.2476 85.2392 65.7934V59.8699C85.2392 59.4369 85.1467 59.1175 84.9617 58.9116C84.7767 58.7056 84.4837 58.6037 84.0809 58.6037H82.9071V66.9981V66.9962Z" fill="black"/>
<path d="M92.3454 68.4857C91.6689 68.4857 91.1351 68.301 90.7438 67.9315C90.289 67.51 90.0615 66.9019 90.0615 66.111V64.4944H90.6494V66.111C90.6494 66.7345 90.8132 67.1983 91.1408 67.5043C91.4165 67.7679 91.8173 67.9007 92.3474 67.9007C92.8774 67.9007 93.2513 67.7679 93.5365 67.5043C93.8642 67.2098 94.028 66.7441 94.028 66.111V65.3354C94.028 64.5752 93.8276 64.0056 93.4248 63.6245C93.0239 63.2454 92.6268 62.9741 92.2356 62.8163C91.7595 62.6373 91.2777 62.3255 90.792 61.881C90.3044 61.4364 90.0615 60.7456 90.0615 59.8064V59.4889C90.0615 58.6979 90.289 58.0898 90.7438 57.6684C91.1351 57.2989 91.6689 57.1141 92.3454 57.1141C93.0219 57.1141 93.5462 57.2989 93.9471 57.6684C94.3904 58.0802 94.6139 58.6864 94.6139 59.4889V60.5666H94.028V59.4889C94.028 58.8557 93.8642 58.39 93.5365 58.0956C93.2725 57.8319 92.8755 57.6991 92.3474 57.6991C91.8193 57.6991 91.4165 57.8319 91.1408 58.0956C90.8132 58.4016 90.6494 58.8673 90.6494 59.4889V59.8064C90.6494 60.3549 90.7689 60.8033 91.0059 61.1535C91.243 61.5019 91.4839 61.7501 91.7268 61.8983C91.9696 62.0465 92.2182 62.1735 92.4726 62.2774C93.9008 62.901 94.6139 63.919 94.6139 65.3335V66.109C94.6139 66.9115 94.3923 67.5177 93.9471 67.9296C93.5462 68.2991 93.0104 68.4838 92.3454 68.4838" fill="black"/>
<path d="M96.31 68.3433H95.7222V57.2565H97.9907C98.6575 57.2565 99.1914 57.4413 99.5923 57.8108C100.047 58.2322 100.275 58.8404 100.275 59.6313V61.0419C100.275 61.8329 100.047 62.441 99.5923 62.8625C99.1895 63.232 98.6556 63.4167 97.9907 63.4167H96.31V68.3414V68.3433ZM96.31 62.8317H97.9907C98.4976 62.8317 98.9004 62.6989 99.1953 62.4353C99.5229 62.1293 99.6867 61.6655 99.6867 61.0419V59.6313C99.6867 59.0078 99.5229 58.544 99.1953 58.238C98.8984 57.9744 98.4976 57.8416 97.9907 57.8416H96.31V62.8298V62.8317Z" fill="black"/>
<path d="M99.9431 67.9142C99.9431 68.0296 99.8987 68.1336 99.8082 68.224C99.7176 68.3145 99.6154 68.3587 99.4998 68.3587C99.3841 68.3587 99.2801 68.3145 99.1895 68.224C99.0989 68.1355 99.0546 68.0316 99.0546 67.9142C99.0546 67.7968 99.0989 67.6948 99.1895 67.6063C99.2801 67.5158 99.3822 67.4716 99.4998 67.4716C99.6174 67.4716 99.7195 67.5158 99.8082 67.6063C99.8987 67.6967 99.9431 67.7987 99.9431 67.9142Z" fill="black"/>
<path d="M104.177 57.2565H103.592V68.3433H104.177V57.2565Z" fill="black"/>
<path d="M110.316 68.3433H110L106.192 59.3138V68.3433H105.606V57.2565H105.924L109.73 66.2842V57.2565H110.316V68.3433Z" fill="black"/>
<path d="M118.692 68.3433H113.885L117.835 57.8416H113.885V57.2565H118.675L114.741 67.7564H118.692V68.3433Z" fill="black"/>
<path d="M121.738 68.4857C121.071 68.4857 120.543 68.301 120.151 67.9315C119.697 67.5197 119.469 66.9134 119.469 66.1109V59.4908C119.469 58.6883 119.697 58.0821 120.151 57.6703C120.543 57.3008 121.071 57.116 121.738 57.116C122.404 57.116 122.948 57.3008 123.339 57.6703C123.794 58.0821 124.022 58.6883 124.022 59.4908V60.5839H123.436V59.4908C123.436 58.8673 123.272 58.4035 122.944 58.0975C122.647 57.8339 122.246 57.7011 121.74 57.7011C121.233 57.7011 120.845 57.8339 120.55 58.0975C120.223 58.3939 120.059 58.8577 120.059 59.4908V66.1109C120.059 66.7441 120.223 67.2098 120.55 67.5043C120.826 67.7679 121.221 67.9007 121.74 67.9007C122.258 67.9007 122.67 67.7679 122.944 67.5043C123.272 67.1983 123.436 66.7345 123.436 66.1109V63.0857H121.755V62.4987H124.023V66.1109C124.023 66.9134 123.796 67.5197 123.341 67.9315C122.95 68.301 122.416 68.4857 121.74 68.4857" fill="black"/>
<path d="M125.687 67.9142C125.687 68.0296 125.642 68.1336 125.552 68.224C125.461 68.3145 125.359 68.3587 125.243 68.3587C125.128 68.3587 125.024 68.3145 124.933 68.224C124.843 68.1355 124.798 68.0316 124.798 67.9142C124.798 67.7968 124.843 67.6948 124.933 67.6063C125.024 67.5158 125.126 67.4716 125.243 67.4716C125.361 67.4716 125.463 67.5158 125.552 67.6063C125.642 67.6967 125.687 67.7987 125.687 67.9142Z" fill="black"/>
<path d="M131.683 68.4857C130.973 68.4857 130.388 68.2798 129.921 67.868C129.414 67.4042 129.16 66.7383 129.16 65.8723V59.7275C129.16 58.8731 129.414 58.2072 129.921 57.7319C130.386 57.32 130.973 57.1141 131.683 57.1141C132.392 57.1141 132.978 57.32 133.442 57.7319C133.94 58.2072 134.188 58.8731 134.188 59.7275V60.7417H132.841V59.7275C132.841 59.2945 132.749 58.9751 132.563 58.7691C132.378 58.5632 132.086 58.4593 131.683 58.4593C131.28 58.4593 130.985 58.5632 130.794 58.7691C130.603 58.9751 130.509 59.2945 130.509 59.7275V65.8723C130.509 66.3053 130.603 66.6248 130.794 66.8307C130.985 67.0366 131.28 67.1405 131.683 67.1405C132.086 67.1405 132.378 67.0366 132.563 66.8307C132.749 66.6248 132.841 66.3053 132.841 65.8723V63.4802H131.683V62.1331H134.188V65.8704C134.188 66.7364 133.94 67.4023 133.442 67.8661C132.978 68.2779 132.39 68.4838 131.683 68.4838" fill="black"/>
<path d="M137.806 68.4857C137.097 68.4857 136.511 68.2798 136.044 67.868C135.547 67.4042 135.298 66.7383 135.298 65.8723V59.7275C135.298 58.8731 135.547 58.2072 136.044 57.7319C136.509 57.32 137.097 57.1141 137.806 57.1141C138.515 57.1141 139.101 57.32 139.566 57.7319C140.063 58.2072 140.312 58.8731 140.312 59.7275V65.8723C140.312 66.7383 140.063 67.4042 139.566 67.868C139.101 68.2798 138.513 68.4857 137.806 68.4857ZM137.806 58.4593C137.403 58.4593 137.11 58.5632 136.925 58.7691C136.74 58.9751 136.648 59.2945 136.648 59.7275V65.8723C136.648 66.3053 136.74 66.6248 136.925 66.8307C137.11 67.0366 137.403 67.1386 137.806 67.1386C138.209 67.1386 138.502 67.0366 138.687 66.8307C138.872 66.6248 138.964 66.3053 138.964 65.8723V59.7275C138.964 59.2945 138.872 58.9751 138.687 58.7691C138.502 58.5632 138.209 58.4593 137.806 58.4593Z" fill="black"/>
<path d="M146.514 68.3433H145.118L143.85 63.7189H142.834V68.3433H141.485V57.2565H143.991C144.721 57.2565 145.307 57.4625 145.752 57.8743C146.259 58.3285 146.514 58.9943 146.514 59.8699V61.1208C146.514 61.9753 146.259 62.6354 145.752 63.1011C145.594 63.2589 145.404 63.3859 145.182 63.4822L146.514 68.3453V68.3433ZM145.165 59.8699C145.165 59.4369 145.07 59.1175 144.879 58.9116C144.688 58.7056 144.392 58.6017 143.991 58.6017H142.832V62.3717H143.991C144.392 62.3717 144.688 62.2717 144.879 62.0715C145.07 61.8714 145.165 61.5539 145.165 61.1208V59.8699Z" fill="black"/>
<path d="M148.942 57.2565H147.593V68.3433H148.942V57.2565Z" fill="black"/>
<path d="M152.62 68.4858C151.901 68.4858 151.319 68.2798 150.875 67.868C150.368 67.4042 150.114 66.7383 150.114 65.8723V59.7102C150.114 58.8558 150.368 58.1899 150.875 57.7146C151.319 57.3027 151.901 57.0968 152.62 57.0968C153.338 57.0968 153.915 57.3027 154.379 57.7146C154.886 58.1899 155.141 58.8538 155.141 59.7102V60.7244H153.791V59.7102C153.791 59.2772 153.697 58.9578 153.506 58.7518C153.315 58.5459 153.02 58.442 152.618 58.442C152.215 58.442 151.922 58.5459 151.737 58.7518C151.552 58.9578 151.459 59.2772 151.459 59.7102V65.8723C151.459 66.3053 151.552 66.6248 151.737 66.8307C151.922 67.0366 152.215 67.1406 152.618 67.1406C153.02 67.1406 153.315 67.0366 153.506 66.8307C153.697 66.6248 153.791 66.3053 153.791 65.8723V64.3828H155.141V65.8723C155.141 66.7383 154.886 67.4042 154.379 67.868C153.915 68.2798 153.327 68.4858 152.62 68.4858Z" fill="black"/>
<path d="M160.013 66.0455H157.696L157.253 68.3414H155.873L158.205 57.2546H159.506L161.823 68.3414H160.443L160.015 66.0455H160.013ZM159.758 64.6984L158.855 59.9315L157.951 64.6984H159.758Z" fill="black"/>
</g>
<mask id="mask1_36_50" style="mask-type:luminance" maskUnits="userSpaceOnUse" x="31" y="54" width="1" height="1">
<path d="M31.1769 54.2524C31.1981 54.2389 31.1981 54.2274 31.1769 54.2139V54.2524Z" fill="white"/>
</mask>
<g mask="url(#mask1_36_50)">
<path d="M31.1981 54.2139H31.1769V54.2524H31.1981V54.2139Z" fill="url(#paint0_linear_36_50)"/>
</g>
<mask id="mask2_36_50" style="mask-type:luminance" maskUnits="userSpaceOnUse" x="11" y="13" width="47" height="53">
<path d="M33.881 13.8677C33.8213 13.9004 33.7442 13.8927 33.7095 13.91C33.6844 13.9235 33.6594 13.9408 33.6343 13.9562C28.0315 16.9911 22.4961 17.9321 16.3671 16.8891C16.1686 16.8544 15.2454 16.5985 15.1413 16.6754C15.1124 16.6966 14.8677 17.3067 14.8272 17.4067C14.1314 19.1157 13.5628 20.8746 13.1176 22.6644C12.6685 24.4733 12.3428 26.3112 12.1385 28.1645C11.9323 30.0273 11.8475 31.9018 11.8803 33.7762C11.913 35.6468 12.0653 37.5154 12.337 39.3667C12.6069 41.2027 12.9943 43.0232 13.5012 44.8091C14.0023 46.57 14.6229 48.2982 15.3668 49.9705C15.9316 51.2426 16.5869 52.4588 17.3038 53.652C17.3906 53.7983 17.4792 53.9426 17.5679 54.0888C17.6064 54.1504 17.643 54.212 17.6816 54.2736C17.8473 54.543 18.0112 54.8144 18.1769 55.0838C18.3485 55.3648 18.52 55.6457 18.7031 55.9171C18.9459 56.277 19.21 56.6214 19.474 56.964C19.5646 56.964 19.898 57.5163 19.9636 57.601C20.0985 57.778 20.2276 57.9628 20.3818 58.1244C20.5321 58.2803 20.6883 58.4304 20.8425 58.5844C21.5864 59.3253 22.737 60.0489 23.4675 60.8033C24.1864 61.5442 24.9246 62.2697 25.7167 62.9337C26.0097 63.1781 26.3084 63.4167 26.6168 63.6419C27.5805 64.3501 28.2242 65.0275 29.3035 65.5471C29.2303 65.3816 29.0087 65.2007 28.8815 65.0544C28.735 64.8831 28.5885 64.7099 28.4459 64.5348C28.1606 64.1846 27.8869 63.8247 27.6248 63.4552C27.1006 62.7162 26.6322 61.9368 26.241 61.1189C25.7187 60.0277 25.3428 58.8692 25.1482 57.6741L22.6079 55.1396C22.3901 54.8702 21.519 53.602 21.3474 53.5327C21.3166 53.3864 21.2935 53.3691 21.2202 53.2498C20.9966 52.8861 20.723 52.4839 20.484 52.1297C20.4512 52.0797 20.4396 52.0162 20.3683 52.022C20.3645 52.0104 20.3722 51.995 20.3683 51.9835C20.2893 51.7699 20.1505 51.5139 19.9963 51.2503C19.7805 50.8846 19.5357 50.5036 19.3777 50.2034C14.8657 41.6222 14.3357 30.341 18.0613 21.2056C18.096 21.1229 18.3003 20.6129 18.3234 20.5956C18.4101 20.5301 19.1811 20.7457 19.3468 20.7726C24.4678 21.6444 29.0935 20.8573 33.7769 18.3209C33.7981 18.3093 33.8193 18.2939 33.8386 18.2824C33.8675 18.267 33.933 18.2747 33.9812 18.2477C34.0969 18.1842 34.411 17.9398 34.5113 17.9533C34.9603 18.1861 35.394 18.471 35.845 18.6942C35.9009 18.7231 35.9491 18.7481 36.0146 18.7365C40.0254 21.0074 45.2871 21.5232 49.6545 20.7726C49.8337 20.7418 50.6085 20.5109 50.701 20.6244C51.923 23.5592 52.7845 26.7211 53.1719 29.9811C54.3302 39.7228 51.4334 49.3585 45.7863 55.8594C43.3752 58.6344 40.461 60.8399 37.1479 62.237C36.4694 62.5238 35.3207 63.0183 34.6327 63.1165C34.3725 63.1531 33.9774 62.9972 33.7095 62.9183C32.4451 62.5449 31.123 61.9522 29.9338 61.319C29.7757 61.2344 29.6543 61.1227 29.4828 61.0862C29.4732 61.0477 29.4462 61.0535 29.4192 61.0477C29.4134 61.0477 29.4095 61.0477 29.4038 61.0477C29.398 61.0477 29.3922 61.0477 29.3864 61.0477C29.3479 60.9534 29.2091 60.9245 29.1609 60.8918C29.0453 60.8148 28.9393 60.6801 28.787 60.6705C28.7658 60.657 28.7446 60.6455 28.7234 60.632C28.6733 60.5435 28.5287 60.4588 28.4401 60.4434C28.4305 60.4434 28.4189 60.4434 28.4092 60.4434C28.3726 60.3337 28.2531 60.3337 28.1876 60.2914C28.124 60.249 28.0334 60.1875 27.966 60.1413C27.7193 59.9642 27.5072 59.791 27.2528 59.6371C28.2686 62.7104 30.857 65.4528 36.7393 65.8511C37.6625 65.9146 38.5317 65.8665 39.3412 65.7241C41.5153 64.6195 43.5294 63.2166 45.3603 61.5654C53.833 53.9272 58.395 40.9968 56.8377 27.9027C56.3732 24.0019 55.3421 20.2184 53.8792 16.7062C53.7694 16.5696 52.8423 16.8467 52.6284 16.8833C47.4033 17.782 41.1047 17.1662 36.3056 14.4469C36.2285 14.4623 36.1707 14.4296 36.1033 14.3969C35.5636 14.1294 35.0432 13.7868 34.5074 13.5097C34.5035 13.5097 34.5016 13.5097 34.4978 13.5097C34.3686 13.5097 34.0082 13.7907 33.8714 13.8619" fill="white"/>
</mask>
<g mask="url(#mask2_36_50)">
<path d="M58.4047 13.5135H11.8456V65.9204H58.4047V13.5135Z" fill="url(#paint1_linear_36_50)"/>
</g>
<mask id="mask3_36_50" style="mask-type:luminance" maskUnits="userSpaceOnUse" x="17" y="23" width="34" height="47">
<path d="M18.4293 53.5924C19.1868 55.7554 19.9905 57.2604 21.4225 59.0501C22.8526 60.8418 24.6412 62.3082 26.4548 63.7131C29.2765 65.9012 32.3101 67.8757 35.4999 69.4845C47.1122 62.8086 52.742 56.1326 50.248 44.9381C49.4752 41.4683 47.4168 38.1101 43.8049 37.1421C45.5453 41.5818 40.5862 43.6083 39.8866 40.0422C39.6476 37.8368 41.0064 36.6398 41.6116 34.748C42.8007 30.5874 38.6781 26.0533 34.4611 24.0808C35.5982 26.0918 36.3364 28.3434 36.2863 30.6412C36.2497 32.304 35.7601 33.9763 34.8388 35.3677C33.8752 36.8226 32.3525 37.8926 31.0824 39.0646C27.0041 42.8269 22.8757 47.2897 25.8323 53.2132C29.7949 61.1535 41.8775 59.2118 43.1072 50.4651H38.6704L38.6627 51.8526L31.9574 50.6922C31.9574 50.6922 31.9594 50.3612 31.9786 47.3763L38.6974 46.2371L38.6878 47.7689H45.9443C45.8884 48.6215 46.0213 49.5587 45.9443 50.3997C44.7956 62.8298 26.6418 64.9524 22.7408 52.7956C21.6827 49.499 21.9949 46.1293 23.8279 43.1733C25.5509 40.3925 28.1259 38.2486 30.5582 36.1144C32.3737 34.521 34.0737 33.1161 34.8446 30.7355C35.5481 28.5667 35.4093 26.1149 34.4148 24.0615C33.4878 23.6324 32.5588 23.3264 31.6799 23.1763C35.976 36.0413 12.5336 36.7533 18.4332 53.5943" fill="white"/>
</mask>
<g mask="url(#mask3_36_50)">
<path d="M52.742 23.1743H12.5277V69.4865H52.742V23.1743Z" fill="url(#paint2_linear_36_50)"/>
</g>
</g>
<defs>
<linearGradient id="paint0_linear_36_50" x1="31.1615" y1="54.2755" x2="31.1615" y2="54.237" gradientUnits="userSpaceOnUse">
<stop stop-color="#8A8C8F"/>
<stop offset="1" stop-color="#231F20"/>
</linearGradient>
<linearGradient id="paint1_linear_36_50" x1="34.8205" y1="65.6752" x2="34.8205" y2="13.3049" gradientUnits="userSpaceOnUse">
<stop stop-color="#8A8C8F"/>
<stop offset="1" stop-color="#231F20"/>
</linearGradient>
<linearGradient id="paint2_linear_36_50" x1="17.5001" y1="46.6959" x2="50.8588" y2="46.6959" gradientUnits="userSpaceOnUse">
<stop stop-color="#EC1C24"/>
<stop offset="0.15" stop-color="#EC2223"/>
<stop offset="0.36" stop-color="#EE3422"/>
<stop offset="0.6" stop-color="#F15221"/>
<stop offset="0.87" stop-color="#F47C1F"/>
<stop offset="1" stop-color="#F7931E"/>
</linearGradient>
<clipPath id="clip0_36_50">
<rect width="175" height="83" fill="white"/>
</clipPath>
</defs>
</svg>
